<svg xmlns="http://www.w3.org/2000/svg" viewBox="0 0 512 512">
    <path d="M478.968 101.079H33.032C14.818 101.079 0 115.897 0 134.111v311.164c0 18.214 14.818 33.032 33.032 33.032h445.935c18.214 0 33.032-14.818 33.032-33.032V134.111c.001-18.214-14.817-33.032-33.031-33.032zm-6.607 337.589H39.639V140.717h432.723v297.951z"/>
    <path d="M327.68 33.693H184.981c-18.214 0-33.032 14.818-33.032 33.032v54.173h39.639V73.332h129.486v47.566h39.639V66.725c-.001-18.214-14.819-33.032-33.033-33.032zm-3.964 235.85H188.945c-10.947 0-19.819 8.872-19.819 19.819s8.872 19.819 19.819 19.819h134.772c10.947 0 19.819-8.872 19.819-19.819s-8.873-19.819-19.82-19.819z"/>
    <path d="M256.33 202.157c-10.947 0-19.819 8.872-19.819 19.819v134.772c0 10.947 8.872 19.819 19.819 19.819s19.819-8.866 19.819-19.819V221.977c.001-10.947-8.872-19.82-19.819-19.82z"/>
</svg>
