<svg enable-background="new 0 0 512.001 512.001" height="512" viewBox="0 0 512.001 512.001" width="512" xmlns="http://www.w3.org/2000/svg"><path d="m227.117 383.98h-46.308c-16.987 0-30.758 13.771-30.758 30.758v34.25h211.906v-34.25c0-16.987-13.771-30.758-30.758-30.758h-46.308z" fill="#fada4d"/><path d="m491.157 70.23c-15.917-24.944-43.818-38.67-78.545-38.67h-.902-311.41-.902c-34.738 0-62.628 13.725-78.545 38.67-17.196 26.947-17.636 62.691-1.206 98.089 30.197 65.029 125.456 86.713 129.503 87.604l9.269 2.045h.01 195.141.01l9.279-2.045c4.037-.891 99.306-22.575 129.493-87.604 16.431-35.398 15.991-71.142-1.195-98.089zm-27.335 84.836c-12.1 26.056-40.379 43.671-61.978 53.852-8.912 4.205-17.395 7.497-24.577 9.992l-242.523.01h-.01c-7.193-2.506-15.675-5.798-24.577-10.003-21.589-10.181-49.878-27.796-61.978-53.852-11.817-25.448-12.11-50.203-.807-67.913 9.93-15.571 28.415-24.137 52.028-24.137h.933 311.348.933c23.613 0 42.088 8.566 52.028 24.137 11.291 17.711 10.997 42.466-.82 67.914z" fill="#f4ce2b"/><path d="m278.024 383.98-.047-30.532c-.034-21.96 11.352-42.511 30.284-53.637 60.287-35.43 103.444-130.412 103.444-242.04v-57.771h-311.408v57.769c0 111.63 43.159 206.615 103.448 242.042 18.931 11.125 30.317 31.675 30.284 53.633l-.045 30.535 25.164 26.053z" fill="#fada4d"/><path d="m245.486 353.447-.021 30.533h-11.481l.042-30.533c.031-21.956-11.356-42.507-30.281-53.632-60.29-35.43-103.447-130.415-103.447-242.041v-57.774h81.198v57.774c0 111.626 20.656 206.611 49.501 242.041 9.058 11.124 14.51 31.675 14.489 53.632z" fill="#f4ce2b"/><path d="m247.916 383.98h-20.797-46.309c-16.987 0-30.758 13.771-30.758 30.758v34.25h67.105v-34.25c0-16.987 13.771-30.758 30.759-30.758z" fill="#f4ce2b"/><path d="m219.114 432.212h-80.945c-9.652 0-17.476 7.824-17.476 17.476v62.314h270.624v-62.314c0-9.652-7.824-17.476-17.476-17.476h-80.945" fill="#4f5b5e"/><path d="m159.138 432.212h-20.97c-9.652 0-17.476 7.824-17.476 17.476v62.314h20.97v-62.314c.002-9.652 7.825-17.476 17.476-17.476z" fill="#3b4547"/></svg>