<svg xmlns="http://www.w3.org/2000/svg" viewBox="0 0 512 512"><path d="M373.369 24.381H318.37v34.02h37.989v75.978c0 57.216-46.551 103.761-103.761 103.761h-7.938c-57.216 0-103.761-46.551-103.761-103.761V58.401h37.989v-34.02h-54.999c-9.395 0-17.01 7.615-17.01 17.01v92.988c0 75.972 61.809 137.781 137.781 137.781h7.938c75.972 0 137.781-61.809 137.781-137.781V41.391c0-9.395-7.615-17.01-17.01-17.01z"/><path d="M316.669 0c-9.395 0-17.01 7.615-17.01 17.01v47.628c0 9.395 7.615 17.01 17.01 17.01 9.395 0 17.01-7.615 17.01-17.01V17.01c0-9.395-7.615-17.01-17.01-17.01zM182.29 0c-9.395 0-17.01 7.615-17.01 17.01v47.628c0 9.395 7.615 17.01 17.01 17.01 9.395 0 17.01-7.615 17.01-17.01V17.01C199.3 7.615 191.685 0 182.29 0zm84.483 350.978v-96.39h-34.02v96.39h-54.999c-44.396 0-80.514 36.118-80.514 80.508 0 44.396 36.373 80.514 81.081 80.514h7.938c44.396 0 80.514-36.118 80.514-80.514v-46.488h57.834v-34.02h-57.834zm-34.02 80.502c0 25.634-20.86 46.494-46.494 46.494h-7.938c-26.388 0-47.061-20.418-47.061-46.494 0-25.634 20.86-46.488 46.494-46.488h54.999v46.488z"/><path d="M361.462 314.69c-29.382 0-53.292 23.905-53.292 53.298 0 29.382 23.905 53.292 53.292 53.292 29.388 0 53.298-23.91 53.298-53.292 0-29.388-23.905-53.298-53.298-53.298zm0 72.565c-10.626 0-19.272-8.647-19.272-19.272 0-10.631 8.647-19.278 19.272-19.278 10.631 0 19.278 8.647 19.278 19.278 0 10.625-8.647 19.272-19.278 19.272z"/></svg>