<svg xmlns="http://www.w3.org/2000/svg" viewBox="0 0 512 327"><path d="M508.74 153.54C504.17 147.28 395.19.34 256 .34S7.82 147.28 3.25 153.54a16.9 16.9 0 0 0 0 19.92c4.57 6.26 113.56 153.2 252.75 153.2s248.17-147 252.74-153.2a16.87 16.87 0 0 0 0-19.92zM256 292.91c-102.53 0-191.33-97.54-217.62-129.42C64.63 131.58 153.25 34.09 256 34.09c102.52 0 191.32 97.52 217.61 129.42-26.25 31.91-114.86 129.4-217.61 129.4z"/><path d="M256 62.23A101.28 101.28 0 1 0 357.27 163.5 101.39 101.39 0 0 0 256 62.23zM256 231a67.52 67.52 0 1 1 67.51-67.52A67.6 67.6 0 0 1 256 231z"/></svg>
