<svg viewBox="0 0 512 512" xmlns="http://www.w3.org/2000/svg"><path d="m501.45 133.09a64.15 64.15 0 0 0 -45.12-45.09c-40.07-11-200.33-11-200.33-11s-160.27 0-200.33 10.55a65.44 65.44 0 0 0 -45.13 45.54c-10.54 40.07-10.54 123.15-10.54 123.15s0 83.51 10.54 123.15a64.18 64.18 0 0 0 45.13 45.13c40.49 11 200.33 11 200.33 11s160.26 0 200.33-10.54a64.16 64.16 0 0 0 45.13-45.13c10.54-40.1 10.54-123.19 10.54-123.19s.42-83.5-10.55-123.57z" fill="#f00"/><path d="m205 333 133.27-76.76-133.27-76.76z" fill="#fff"/></svg>